<svg xmlns="http://www.w3.org/2000/svg" width="400" height="300" viewBox="0 0 400 300"><defs><linearGradient id="bg" x1="0%" y1="0%" x2="100%" y2="100%"><stop offset="0%" style="stop-color:#228B2222"/><stop offset="100%" style="stop-color:#32CD3211"/></linearGradient><radialGradient id="glow" cx="50%" cy="40%" r="50%"><stop offset="0%" style="stop-color:#228B2233"/><stop offset="100%" style="stop-color:transparent"/></radialGradient></defs><rect width="400" height="300" fill="#fafafa" rx="12"/><rect width="400" height="300" fill="url(#bg)" rx="12"/><ellipse cx="200" cy="130" rx="120" ry="80" fill="url(#glow)"/><ellipse cx="200" cy="160" rx="100" ry="30" fill="white" opacity="0.9"/><ellipse cx="200" cy="155" rx="90" ry="25" fill="white"/><ellipse cx="200" cy="155" rx="85" ry="22" fill="#228B2215"/><ellipse cx="185" cy="145" rx="20" ry="12" fill="#228B22" opacity="0.8" transform="rotate(-20 185 145)"/><ellipse cx="215" cy="140" rx="18" ry="10" fill="#32CD32" opacity="0.8" transform="rotate(15 215 140)"/><ellipse cx="200" cy="155" rx="22" ry="11" fill="#90EE90" opacity="0.7" transform="rotate(-5 200 155)"/><text x="200" y="220" font-family="system-ui,sans-serif" font-size="20" font-weight="600" fill="#1d1d1f" text-anchor="middle">莴笋炒虾仁</text><text x="200" y="245" font-family="system-ui,sans-serif" font-size="12" fill="#999" text-anchor="middle">家常菜</text><rect x="170" y="260" width="60" height="2" rx="1" fill="#228B22" opacity="0.4"/></svg>